# xmcd
# 
# Track frame offsets:
#     150
#     27867
#     52790
#     82432
#     104582
#     121060
#     149970
#     172755
#     193090
#     217095
#     243142
# 
# Disc length: 3562
# 
# Revision: 3
# Processed by: cddbd v1.5.2PL0 Copyright (c) Steve Scherf et al.
# Submitted via: BonkEnc v1.0.8
# 
DISCID=9e0de80b
DTITLE=David Matthews - Guitars On Fire
DYEAR=1996
DGENRE=Fusion
TTITLE0=Air Brower
TTITLE1=Guitars On Fire
TTITLE2=A Lull In The Rain
TTITLE3=Samba Pa Ti
TTITLE4=Rollin And Tumbling
TTITLE5=Passion Flower
TTITLE6=Destination
TTITLE7=Don't Look For Myself
TTITLE8=Get Ready
TTITLE9=Freeway Jam
TTITLE10=Old Familiar Faces
EXTD=
EXTT0=
EXTT1=
EXTT2=
EXTT3=
EXTT4=
EXTT5=
EXTT6=
EXTT7=
EXTT8=
EXTT9=
EXTT10=
PLAYORDER=
